# xmcd
#
# Track frame offsets:
#	150
#	12741
#	36493
#	54239
#	72584
#	85125
#	109361
#	124980
#	145079
#	162182
#	182269
#	201420
#
# Disc length: 2989 seconds
#
# Revision: 0
# Processed by: cddbd v1.4PL0 Copyright (c) Steve Scherf et al.
# Submitted via: dBpowerAMP V4.0
#
DISCID=af0bab0c
DTITLE=Buddy Guy - Blues Singer
DYEAR=1900
DGENRE=
TTITLE0=Hard Time Killing Floor
TTITLE1=Crawlin' Kingsnake
TTITLE2=Lucy Mae Blues
TTITLE3=Can't See Baby
TTITLE4=I Live The Life I Love
TTITLE5=Louise McGhee
TTITLE6=Moanin' And Groanin'
TTITLE7=Black Cat Blues
TTITLE8=Bad Life Blues
TTITLE9=Sally Mae
TTITLE10=Anna Lee
TTITLE11=Lonesome Home Blues
EXTD=
EXTT0=
EXTT1=
EXTT2=
EXTT3=
EXTT4=
EXTT5=
EXTT6=
EXTT7=
EXTT8=
EXTT9=
EXTT10=
EXTT11=
PLAYORDER=
